<svg width="129" height="49" viewBox="0 0 129 49" fill="none" xmlns="http://www.w3.org/2000/svg">
<path fill-rule="evenodd" clip-rule="evenodd" d="M2.01293 41.2623V21.5775H6.79141V41.3691C6.79141 45.5386 4.38389 48.844 0 48.879V44.2083C1.97611 44.0282 2.01293 43.0945 2.01293 41.2623ZM19.1377 21.5791C25.0302 21.5791 29.7011 26.3215 29.7011 32.178C29.7011 38.2142 25.1746 42.8501 19.1377 42.8501C13.3164 42.8501 8.50193 38.0711 8.50193 32.2499C8.50193 26.3934 13.2452 21.5791 19.1377 21.5791ZM42.1187 42.8399L42.1213 42.8501C37.0658 42.8329 31.5647 38.7611 31.2855 33.2216C31.2756 33.0276 31.2855 32.336 31.2855 32.1386V15.6147H36.0645V24.0148C36.1543 23.9468 36.245 23.8801 36.3366 23.8145C37.3525 22.8893 38.5982 22.2385 39.9345 21.8891C40.2721 21.7851 40.5847 21.7107 40.8419 21.6919V21.7008C41.3185 21.6261 41.7991 21.5791 42.2803 21.5791C45.0015 21.5791 47.3727 22.6843 49.129 24.4293L47.1502 29.9181C46.3608 27.6252 44.3727 25.9617 41.7061 25.9617C38.4007 25.9617 35.7767 28.6928 35.7767 31.9634C35.7767 35.4831 38.113 38.466 41.7774 38.466C42.706 38.466 43.5393 38.267 44.2672 37.9162L42.4895 42.8467C42.4556 42.8467 42.4227 42.8501 42.3887 42.8501C42.2942 42.8501 42.2104 42.8412 42.1184 42.8397L42.1187 42.8399ZM54.4971 26.0627V42.5545H50.7601V15.9665H54.4971V22.6493H57.7675V26.0627H54.4971ZM90.5822 42.5427V15.6688H94.3193V42.5427H90.5822ZM103.567 21.5958H107.986L99.4579 31.7573L107.831 42.5461H103.16L95.1824 31.9725L103.567 21.5958H103.567ZM65.6635 26.6738C63.9029 27.5714 63.472 29.8711 63.472 31.6678V42.555H59.7355V21.6047H63.2205V24.446H63.2918C64.5134 22.7206 66.3459 22.1829 68.358 22.1095V25.9544C67.5313 25.9544 66.3827 26.2777 65.6635 26.6738ZM82.9499 37.7656H87.2307C85.4191 40.8497 82.1924 42.8062 78.4911 42.8062C72.8143 42.8062 68.3583 37.8836 68.3583 32.3154C68.3583 26.5655 72.743 21.8583 78.5627 21.8583C84.204 21.8583 88.6952 26.4942 88.6952 32.0992C88.6952 32.7097 88.6602 33.3561 88.5881 33.9672H72.0951C72.8498 37.0579 75.3657 39.3938 78.636 39.3938C80.2235 39.3899 81.7558 38.8115 82.9499 37.7656ZM19.1377 38.466C22.5151 38.466 24.9226 35.5552 24.9226 32.2862C24.9226 29.0876 22.5149 25.9619 19.1377 25.9619C15.7595 25.9619 13.2799 29.0158 13.2799 32.2499C13.2799 35.5915 15.6885 38.466 19.1377 38.466ZM78.5279 25.272C75.2941 25.272 72.3113 27.8229 72.0951 31.0935H84.9587C84.7438 27.8229 81.7617 25.272 78.5279 25.272Z" fill="white"/>
<path fill-rule="evenodd" clip-rule="evenodd" d="M117.04 20.5157L117.101 20.4831L117.103 20.4823C117.082 20.493 117.061 20.5048 117.04 20.5155C117.04 20.5155 117.04 20.5157 117.04 20.5157ZM124.145 5.00592C124.225 5.04666 124.3 5.08426 124.38 5.12657C123.723 2.20145 122.229 0.990508 122.195 0.962826C122.636 1.16872 123.062 1.40583 123.469 1.67236C121.836 0.602017 119.93 0.0219424 117.977 0.00075753C113.543 -0.0525166 109.733 2.70938 108.245 6.62608C107.828 7.7229 108.942 6.84335 108.85 6.93528C110.225 5.74613 111.818 4.83717 113.541 4.25956C115.271 3.67967 117.098 3.4471 118.918 3.57518C120.737 3.70326 122.514 4.18948 124.145 5.00592Z" fill="#8FC62E"/>
<path fill-rule="evenodd" clip-rule="evenodd" d="M107.579 10.1516C107.514 15.5511 111.627 20.0245 116.915 20.5045C116.78 20.4418 116.645 20.3791 116.51 20.3144C114.059 19.0944 112.024 17.1741 110.665 14.7969C109.584 12.9673 109.099 11.1225 108.918 9.52141C108.912 9.47414 108.907 9.42661 108.902 9.37934C108.9 9.35819 108.898 9.3373 108.896 9.31615C108.812 8.52522 108.797 7.72855 108.85 6.935L108.858 6.929C108.945 5.60602 109.183 4.76747 109.185 4.75781C108.156 6.37011 107.599 8.23878 107.579 10.1516Z" fill="url(#paint0_linear_9_150)"/>
<path fill-rule="evenodd" clip-rule="evenodd" d="M124.38 5.12663C125.062 8.22521 124.661 11.4641 123.243 14.3026C121.858 17.0734 119.668 19.1787 117.101 20.4834L117.04 20.5155C117.268 20.5333 117.498 20.5469 117.73 20.5495C123.404 20.6174 128.059 16.0734 128.127 10.3989C128.177 6.23207 125.739 2.61805 122.194 0.962891C122.229 0.990311 123.722 2.20151 124.38 5.12663Z" fill="url(#paint1_linear_9_150)"/>
<defs>
<linearGradient id="paint0_linear_9_150" x1="475.512" y1="1312.58" x2="-881.11" y2="62.602" gradientUnits="userSpaceOnUse">
<stop stop-color="#94C11A"/>
<stop offset="1" stop-color="#38782D"/>
</linearGradient>
<linearGradient id="paint1_linear_9_150" x1="922.08" y1="1475.75" x2="2187.79" y2="414.706" gradientUnits="userSpaceOnUse">
<stop stop-color="#94C11A"/>
<stop offset="1" stop-color="#38782D"/>
</linearGradient>
</defs>
</svg>
